<svg xmlns="http://www.w3.org/2000/svg" version="1.1" xmlns:xlink="http://www.w3.org/1999/xlink" xmlns:svgjs="http://svgjs.com/svgjs" width="1440" height="678" preserveAspectRatio="none" viewBox="0 0 1440 678"><g mask="url(&quot;#SvgjsMask1026&quot;)" fill="none"><circle r="9.44" cx="1035.6200000000001" cy="676.35" filter="url(#SvgjsFilter1027)" fill="rgba(255, 255, 255, 0.58)"></circle><circle r="5.67" cx="85.13" cy="449.55" filter="url(#SvgjsFilter1027)" fill="rgba(255, 255, 255, 0.58)"></circle><circle r="7.615" cx="1189.135" cy="99.755" filter="url(#SvgjsFilter1027)" fill="rgba(255, 255, 255, 0.58)"></circle><circle r="11.06" cx="307.67" cy="578.9" filter="url(#SvgjsFilter1027)" fill="rgba(255, 255, 255, 0.58)"></circle><circle r="8.725" cx="122.255" cy="19.685000000000002" filter="url(#SvgjsFilter1027)" fill="rgba(255, 255, 255, 0.58)"></circle><circle r="8.56" cx="1128.73" cy="521.27" filter="url(#SvgjsFilter1027)" fill="rgba(255, 255, 255, 0.58)"></circle><circle r="8.795" cx="329.46500000000003" cy="537.005" filter="url(#SvgjsFilter1027)" fill="rgba(255, 255, 255, 0.58)"></circle><circle r="8.65" cx="962.03" cy="524.51" filter="url(#SvgjsFilter1027)" fill="rgba(255, 255, 255, 0.58)"></circle><circle r="6.365" cx="774.715" cy="290.815" filter="url(#SvgjsFilter1027)" fill="rgba(255, 255, 255, 0.58)"></circle><circle r="7.16" cx="456.26000000000005" cy="194.96" filter="url(#SvgjsFilter1027)" fill="rgba(255, 255, 255, 0.58)"></circle><circle r="6.97" cx="658.7900000000001" cy="295.53000000000003" filter="url(#SvgjsFilter1027)" fill="rgba(255, 255, 255, 0.58)"></circle><circle r="8.205" cx="835.7950000000001" cy="352.73499999999996" filter="url(#SvgjsFilter1027)" fill="rgba(255, 255, 255, 0.58)"></circle><circle r="9.685" cx="1269.5449999999998" cy="104.215" filter="url(#SvgjsFilter1027)" fill="rgba(255, 255, 255, 0.58)"></circle><circle r="8.15" cx="511.03999999999996" cy="610.78" filter="url(#SvgjsFilter1027)" fill="rgba(255, 255, 255, 0.58)"></circle><circle r="9.485" cx="389.615" cy="308.575" filter="url(#SvgjsFilter1027)" fill="rgba(255, 255, 255, 0.58)"></circle><circle r="8.035" cx="477.555" cy="490.01500000000004" filter="url(#SvgjsFilter1027)" fill="rgba(255, 255, 255, 0.58)"></circle><circle r="8.335" cx="353.585" cy="554.6550000000001" filter="url(#SvgjsFilter1027)" fill="rgba(255, 255, 255, 0.58)"></circle><circle r="7.56" cx="213.17000000000002" cy="14.8" filter="url(#SvgjsFilter1027)" fill="rgba(255, 255, 255, 0.58)"></circle><circle r="6.35" cx="553.61" cy="392.85" filter="url(#SvgjsFilter1027)" fill="rgba(255, 255, 255, 0.58)"></circle><circle r="7.65" cx="457.78999999999996" cy="648.73" filter="url(#SvgjsFilter1027)" fill="rgba(255, 255, 255, 0.58)"></circle><path d="M892.5 398.9L930.3 361.8 944.9 361.6 961.1 389.9 953.8 402.9 902.4 416.1C901.8 416.4 901.8 416.4 901.3 416.7 900.2 417.4 899.4 418.6 899.8 420.5 900.7 422.2 901.9 423 903.9 422.6L948.8 411 937.3 430.8 917.5 436.2C917.5 436.2 917 436.5 917 436.5 915.9 437.1 915.1 438.3 915.5 440.3 915.6 441.7 917.6 442.8 919.6 442.4L932.6 439.4 924 453.9C923.2 455.1 923.6 457.1 925.1 458.4S928.8 458.5 930.2 457L938.3 442.8 941.8 455.5C942.2 457.5 944.3 458.5 946.3 458.1 947.4 457.5 948.7 456 948.3 454L942.9 434.2 955 414.1 966.7 459C967.1 461 969.1 462 970.6 461.9 972.2 461 973.6 459.5 973.2 457.5L959.5 406.4 967.3 393 999.2 393.3 1006.8 406.6 993.3 457.8C992.8 459.5 993.7 461.2 995.5 461.7S998.9 461.2 999.4 459.5L1011.2 414.4 1023 434.9 1017.7 454.2C1017.2 455.9 1018.2 457.6 1020.3 458.6S1023.7 458.1 1024.1 456.4L1027.4 442.7 1036 457.7C1036.9 459.4 1039.2 459.6 1040.9 458.6 1042.6 457.7 1043 455.9 1042.1 454.2L1033.5 439.2 1046.6 442.8C1048.7 443.8 1050.3 442.9 1050.5 440.6 1051 438.8 1050 437.2 1048.3 436.7L1029.1 431.5 1017.3 410.9 1062.2 423.6C1063.9 424.1 1066.1 422.8 1066.6 421.1S1066.1 417.7 1064.4 417.2L1012.9 403.1 1005.3 389.8 1021.8 361.9 1036.7 362.2 1073.8 400C1075.3 401.4 1077.3 401 1078.9 400 1080.3 398.5 1079.9 396.5 1078.9 394.9L1046.2 362 1069.1 362.2 1083.4 376.9C1084.9 378.2 1086.9 377.8 1088.5 376.9 1089.3 375.7 1089.5 373.4 1088 372L1078.9 362.5 1095.8 362.4C1097.2 362.3 1098.5 360.8 1099 359.1 1098.6 357.1 1097.1 355.7 1095.7 355.8L1078.8 355.9 1088.6 345.9C1089.3 344.7 1089.5 342.4 1088.3 341.6 1087.4 339.9 1085.9 340 1084.3 341 1084.3 341 1083.7 341.3 1083.7 341.3L1069 355.6 1046.1 355.4 1079 322.6C1080.3 321.1 1080.8 319.4 1079.3 318 1077.8 316.7 1076.3 316.8 1075.2 317.4 1074.7 317.7 1074.7 317.7 1074.7 317.7L1036.6 355.6 1021.7 355.3 1005.5 327 1013.1 314.5 1064.8 300.5C1066.3 300.4 1067.3 298.3 1067.2 296.9 1066.8 294.9 1064.7 293.9 1062.8 294.3L1017.8 306 1029.3 286.1 1049.1 280.7C1051.1 280.3 1052.4 278.8 1051.5 277.1 1051.1 275.2 1049 274.1 1047.6 274.2L1034.3 278.1 1043 263.6C1043.5 261.8 1043.1 259.8 1041.6 258.5 1040.7 258.2 1039.3 258.3 1038.2 259 1037.6 259.3 1037.6 259.3 1037.4 260.2L1028.7 274.7 1024.8 261.4C1024.4 259.4 1022.7 259 1021.3 259 1020.7 259.4 1020.7 259.4 1020.1 259.7 1019 260.3 1018.2 261.5 1018.3 262.9L1023.7 282.7 1012.2 302.5 1000.5 257.6C999.6 255.9 998.1 254.6 996.4 255.5 995.5 255.3 995.5 255.3 995 255.6 993.9 256.3 993.4 258 993.5 259.4L1007.5 311.1 999.9 323.6 967.5 323.6 960.2 310.9 974.3 259.3C974.7 257.6 973.5 255.4 971.7 254.9S967.8 255.7 967.3 257.4L955.4 302.5 944 282.5 948.9 262.7C949.4 261 948.5 259.3 946.7 258.9 945 258.4 943.3 259.3 942.8 261.1L939.3 274.2 930.7 259.2C930 258.1 928 257 926.3 258 924.6 258.9 923.9 261.6 924.6 262.7L933.1 277.7 920 274.1C919.2 273.9 918.3 273.6 917.7 273.9 916.6 274.6 916.4 275.4 916.2 276.3 915.7 278.1 916.6 279.7 918.4 280.2L937.9 286 949.3 306 904.5 293.3C903.6 293.1 903 293.4 901.9 294 901.4 294.3 900.8 294.6 900.6 295.5 900.1 297.3 901.4 299.5 903.1 300L954.1 314.3 961.4 327.1 945.4 354.7 930.3 355.2 892.9 316.9C891.7 316.1 889.9 315.6 888.8 316.2 888.3 316.6 888.3 316.6 888.6 317.1 886.9 318.1 886.8 320.4 888.3 321.7L921.1 354.6 897.6 354.7 883.3 340C882.1 339.3 880.6 339.3 879.5 340 879.5 340 879 340.3 879 340.3 877.3 341.2 877.2 343.5 878.7 344.9L888.7 354.7 871.8 354.7C870.9 354.5 870.3 354.8 869.8 355.1 868.7 355.8 867.9 357 868.2 357.5 868 359.8 869.5 361.2 871.3 361.6L888.2 361.6 878.7 370.7C877.3 372.2 877.1 374.5 878.7 375.8 879.8 376.6 882.1 376.8 882.9 375.6L897.6 361.3 920.6 361.5 887.7 394.3C886.4 395.8 886.7 397.8 887.7 399.4 888.9 400.2 891.2 400.4 892.5 398.9ZM965.3 383.1L953 361.4 951.1 358.1 952.9 354.8 965.2 333.8 967.6 330.2 971.3 330.3 995.7 330.4 999.4 330.5 1001.3 333.8 1013.7 355.5 1015.6 358.8 1013.8 362.1 1001.5 383.1 999.6 386.4 995.3 386.6 971 386.5 967.2 386.4 965.3 383.1Z" fill="rgba(255, 255, 255, 0.58)"></path><path d="M1372.7 541.8L1390.7 589.7 1382.6 606.5 1376.6 590.3C1376.4 588.4 1374.4 588 1372.5 588.1 1371.3 588.9 1370.2 590.9 1371 592.1L1378.8 614.5 1371.4 631.3 1361 616.2 1365.2 592.7C1365.2 592.7 1365.2 592 1365.2 592 1365.1 590.8 1363.7 589.6 1362.3 589.1 1360.4 589.3 1359.2 590 1358.7 592L1355.8 609 1345.4 593.9 1353.6 543.6C1353.6 543.6 1354.2 542.9 1354.2 542.9 1354.1 541.6 1352.7 540.5 1351.3 540 1349.4 539.5 1347.6 541 1347.7 542.9L1340.2 586.6 1327 568.6 1330.3 549C1330.3 549 1330.3 549 1330.3 548.4 1330.1 547.1 1329.4 545.9 1328.1 545.3 1326.1 545.5 1324.3 546.3 1323.8 548.3L1321.8 561.3 1312.2 548.1C1311.4 546.2 1309.5 546.4 1308.3 547.2 1306.4 548 1306 550 1307.4 551.8L1316.4 565.1 1303.9 562.4C1302 562.5 1300.2 563.4 1300.3 565.3 1299.9 567.2 1300.6 568.5 1302.6 568.9L1322.2 572.2 1334.8 590.4 1290.4 582.9C1289.1 582.4 1287.3 583.8 1286.8 585.8 1286.9 587.1 1287.8 588.9 1289.7 589.4L1340 597.6 1350.4 612.7 1333.4 609.8C1331.4 609.3 1330.3 610.7 1329.8 612.7 1329.3 614 1330.7 615.8 1332.1 616.3L1355.6 619.9 1366.6 635 1348.1 636.7 1330 621.6C1328.6 620.5 1326.7 620.7 1325.5 622.1 1324.3 622.8 1324.6 625.4 1326 626.5L1339.2 637.5 1320.7 639.2 1281.6 606.2C1280.3 605.1 1278.3 605.2 1277.2 606.6 1276 608 1276.2 609.9 1277.6 611.1L1311.8 640.1 1290.1 642.1 1274.8 629.4C1273.4 628.2 1271.5 628.4 1270.3 629.8 1269.2 631.2 1269.4 633.1 1270.8 634.2L1280.6 643 1264.6 644.4C1262.7 644.6 1261.6 646 1261.7 647.9 1261.9 649.8 1263.3 651 1265.2 650.8L1281.2 649.3 1273.1 659.1C1271.9 660.5 1272.1 662.4 1273.5 663.5S1276.8 664.5 1277.9 663.1L1290.1 648.5 1312.4 646.4 1284.1 680.6C1282.9 681.9 1283.1 683.9 1284.5 685 1285.9 686.2 1287.8 686 1288.9 684.6L1321.3 645.6 1339.8 643.9 1328.8 657.1C1327.6 658.5 1327.8 660.4 1329.2 661.6 1330.6 662.7 1332.5 662.6 1333.7 661.2L1348.7 643.1 1366.5 641.4 1359 657.5 1336.7 666C1335.5 666.8 1334.4 668.8 1335.1 670 1336 671.9 1337.3 672.4 1339.2 672.2L1355.4 666.2 1347.9 682.3 1300 700.3C1298.2 701.1 1297.7 702.4 1297.8 704.3 1298.7 706.2 1300.6 706.7 1301.9 706.5L1344.2 691 1334.5 711.2 1316.5 718C1314.6 718.2 1314.1 720.2 1314.3 722.1 1315 723.3 1317.1 724.4 1318.9 723.6L1330.7 719.3 1324.4 734C1323.2 735.4 1324 737.3 1326.1 738.4 1327.4 738.9 1329.3 738.1 1329.8 736.7L1336.8 721.9 1341.1 734.4C1341.9 736.2 1343.9 736.7 1345.1 735.9 1347 735.8 1347.6 734.4 1347.4 733.2 1347.4 732.5 1347.4 732.5 1347.3 731.9L1340.5 713.9 1350.2 693.7 1365.6 735.3C1365.8 737.2 1367.8 737.7 1369.7 737.5 1370.9 736.8 1371.4 735.4 1371.3 734.1 1371.3 733.5 1371.3 733.5 1371.3 733.5L1353.9 685 1361.4 668.9 1367.4 685C1368.2 686.9 1369.5 687.4 1371.4 687.2 1372.7 686.5 1373.8 685.1 1373.7 683.8 1373.6 683.2 1373.6 683.2 1373.6 682.5L1365.1 660.2 1372.6 644 1382.9 658.5 1379.3 682C1378.9 684 1380.3 685.7 1381.6 686.3 1383.6 686.1 1385.4 685.3 1385.2 683.4L1388.2 666.4 1399.1 680.8 1390.4 731.7C1389.9 733.1 1391.3 734.9 1392.6 735.4 1394.5 735.2 1396.4 734.4 1396.9 732.4L1404.4 688.7 1417 706.8 1413.6 725.7C1413.1 727.7 1414.6 729.5 1416.5 729.3 1417.8 729.8 1419.7 729 1420.1 727L1422.1 714 1431.7 727.2C1432.5 728.5 1434.5 728.9 1436.3 728.1 1436.9 727.4 1437.4 726.1 1437.3 724.8 1437.3 724.8 1437.2 724.2 1437.2 723.5L1427.6 710.3 1440.6 712.3C1442 712.8 1443.8 711.3 1444.3 710 1444.2 709.4 1444.2 709.4 1444.2 709.4 1444 707.5 1442.6 706.3 1441.4 706.4L1422.4 703 1409.2 685 1453.6 692.4C1455.5 692.3 1456.7 691.5 1457.2 689.5 1457.2 689.5 1457.1 688.9 1457.1 688.9 1457 687.6 1456.2 686.4 1454.2 685.9L1403.9 677.1 1393.6 662.7 1410.6 665.6C1412.5 665.4 1414.3 664.6 1414.2 662.7 1414.8 662.6 1414.7 662 1414.7 662 1414.6 660.7 1413.2 659.5 1411.9 659L1388.4 655.4 1378 640.3 1395.9 638.7 1414 653.7C1415.4 654.9 1417.9 654.6 1419.1 653.2 1419.6 651.9 1419.4 650 1418.7 648.8L1404.8 637.8 1423.3 636.1 1462.3 668.5C1463.7 669.6 1465.6 669.5 1466.7 668.1 1467.9 666.7 1467.7 664.8 1466.3 663.6L1432.2 635.3 1454.5 633.2 1469.1 645.4C1470.5 646.5 1472.4 646.3 1473.6 644.9S1474.6 641.6 1473.2 640.5L1463.4 632.4 1479.3 630.9C1481.3 630.7 1482.4 629.3 1482.2 627.4 1482.1 625.5 1480.7 624.4 1478.7 624.5L1462.8 626 1470.9 615.6C1471.4 614.9 1472 614.2 1471.9 613.6 1471.9 613 1471.1 611.7 1470.4 611.2 1469 610 1467.1 610.2 1466 611.6L1453.9 626.8 1431.6 628.9 1459.9 594.2C1460.4 593.5 1461 592.8 1461 592.1 1460.9 591.5 1460.1 590.3 1459.4 589.7 1458 588.5 1456.1 588.7 1455 590.1L1422.7 629.7 1404.2 631.5 1415.8 618.2C1416.4 617.5 1416.3 616.2 1416.2 615.6 1416.2 614.9 1416.1 614.3 1415.4 613.7 1414 612.6 1411.5 612.8 1410.9 614.1L1395.3 632.3 1377.4 634 1384.9 617.2 1407.3 609.3C1408.5 608.6 1409.6 607.2 1409.5 605.9 1409.5 605.3 1409.5 605.3 1408.8 605.3 1408.7 603.4 1406.6 602.3 1404.8 603.1L1388.6 609.1 1396.1 592.4 1444.6 575C1445.8 574.3 1446.3 572.9 1446.2 571.6 1446.1 571 1446.1 571 1446.1 571 1445.3 569.2 1443.9 568 1442.1 568.8L1399.8 584.3 1409.5 564.1 1427.5 557.3C1429.4 556.5 1429.9 555.2 1429.8 553.9 1429.8 553.9 1429.7 553.2 1429.7 553.2 1428.9 551.4 1426.9 550.9 1425.6 551.1L1413.3 556.1 1420.2 541.3C1420.2 540.6 1420.1 540 1420.1 539.4 1420 538.7 1419.2 537.5 1418.5 536.9 1416.6 536.5 1414.7 536.6 1414.2 538.6L1407.2 553.4 1402.8 541C1402 539.1 1400.1 538.6 1398.8 538.8 1396.9 539.6 1396.5 541.6 1396.7 543.5L1403.5 561.5 1394.4 581.6 1379 540C1378.2 538.1 1376.1 537 1374.9 537.8 1373.1 538.6 1371.9 540 1372.7 541.8Z" fill="rgba(255, 255, 255, 0.58)"></path><path d="M531.8 356L582.6 361.9 593.8 376.8 576.7 374.7C575 374 573.6 375.5 572.9 377.3 573 378.7 574.3 380.6 575.8 380.5L599.3 383.8 610.8 398.1 592.6 400.4 573.6 385.9C573.6 385.9 573 385.6 573 385.6 571.8 385.2 570.2 385.9 569.1 386.8 568.4 388.6 568.5 390 570 391.3L583.8 401.7 565.6 404 524.7 373.8C524.7 373.8 524.3 372.9 524.3 372.9 523.1 372.5 521.5 373.2 520.4 374.1 519.1 375.7 519.6 377.9 521.3 378.6L556.8 405.3 534.7 408.9 518.8 396.9C518.8 396.9 518.8 396.9 518.2 396.7 517 396.2 515.6 396.3 514.5 397.3 513.8 399.1 513.7 401.1 515.2 402.4L525.9 410.1 509.7 412.6C507.7 412.5 507 414.3 507.1 415.7 507 417.7 508.5 419 510.8 418.5L526.7 416.7 518.6 426.5C517.9 428.3 517.8 430.3 519.6 431 521.1 432.4 522.5 432.2 523.9 430.7L535.8 414.8 557.6 411.9 530.7 447.9C529.6 448.9 530.1 451.2 531.6 452.5 532.8 452.9 534.9 453.1 536.2 451.5L566.4 410.6 584.6 408.2 574.3 422C572.9 423.5 573.7 425.2 575.2 426.5 576.1 427.6 578.4 427.1 579.5 426.2L593.4 407 611.9 404 604.9 421.2 583.3 430.5C581.6 431.2 580.9 433 581.6 434.6 581.7 436 584.1 437 585.8 436.3L601.6 429.6 594.6 446.8 547.4 466.4C545.8 467.1 545 468.9 545.8 470.6 546.5 472.2 548.2 472.9 549.9 472.2L591.3 455.1 583.2 475.3 564.9 483.1C563.2 483.8 562.5 485.6 563.2 487.2 563.9 488.9 565.7 489.6 567.3 488.9L579.6 484.2 573.6 499C572.9 500.8 573.6 502.5 575.4 503.2 577.2 503.9 578.8 503.2 579.6 501.4L585.5 486.6 590.5 498.2C591.2 499.9 593 500.6 594.7 499.9S597 497.4 596.3 495.7L588.9 478.3 597.2 457.5 614.6 498.3C615.3 499.9 617.1 500.7 618.8 499.9 620.4 499.2 621.2 497.5 620.5 495.8L600.6 449.2 607.5 431.9 614.3 447.8C615 449.4 616.7 450.1 618.4 449.4 620.1 448.7 620.8 446.9 620.1 445.3L610.9 423.6 617.5 407 628.5 421 625.8 444.8C625.9 446.2 627.2 448.1 628.6 448 630.7 448.2 631.7 447.2 632.4 445.4L634.5 428.3 645.4 442.4 639.5 493.1C639.4 495.1 640.3 496.2 642.1 496.9 644.1 497 645.4 495.5 645.9 494.3L651.5 449.6 665 467.5 662.8 486.6C662.1 488.4 663.6 489.7 665.4 490.4 666.8 490.3 668.7 489 668.8 487L670.4 474.5 680.6 486.9C681.3 488.5 683.3 488.7 685.2 487.4 686.3 486.4 686.4 484.4 685.5 483.3L675.5 470.3 688.6 472.2C690.6 472.3 691.9 470.7 691.8 469.3 692.5 467.5 691.6 466.5 690.4 466 689.8 465.7 689.8 465.7 689.2 465.5L670.1 463.3 656.6 445.5 700.7 450.8C702.4 451.5 703.7 450 704.5 448.2 704.3 446.8 703.4 445.7 702.2 445.2 701.6 445 701.6 445 701.6 445L650.5 438.2 639.6 424.2 656.7 426.2C658.7 426.3 659.8 425.4 660.5 423.6 660.4 422.2 659.7 420.5 658.5 420 657.9 419.8 657.9 419.8 657.3 419.6L633.6 416.9 622.7 402.9 640.3 400.3 659.5 414.2C661 415.5 663.3 415.1 664.4 414.1 665.1 412.3 665.2 410.3 663.4 409.6L649.7 399.2 667.5 396.1 708.8 427.2C709.7 428.2 712 427.8 713.1 426.8 713.8 425 713.9 423 712.4 421.7L676.9 395 698.8 392.1 714.1 403.8C715.6 405.1 717.9 404.6 718.6 402.8 719.6 401.9 719.8 399.8 718.2 398.5L707.5 390.8 723.7 388.3C725.1 388.2 726.5 386.7 726.6 384.6 726.2 383.8 725.3 382.7 724.1 382.3 724.1 382.3 723.5 382 722.9 381.8L706.7 384.3 714.5 373.6C715.5 372.6 715.1 370.4 714.1 369.3 713.5 369.1 713.5 369.1 713.5 369.1 711.8 368.3 710.1 369 709.6 370.2L697.9 385.5 675.8 389.1 702.8 353C703.5 351.2 703.4 349.8 701.8 348.5 701.8 348.5 701.2 348.2 701.2 348.2 700 347.8 698.6 347.9 697.3 349.4L666.4 390.1 648.8 392.7 659.2 378.9C659.9 377.1 660 375.1 658.3 374.4 658.5 373.8 657.9 373.6 657.9 373.6 656.7 373.1 655.1 373.8 654 374.8L640 394 621.9 396.3 628.5 379.7 650.2 370.5C651.9 369.8 652.8 367.4 652.1 365.7 651.2 364.6 649.4 363.9 647.9 364L631.9 371.4 638.8 354.2 685.4 334.3C687.1 333.6 687.8 331.8 687.1 330.1 686.4 328.5 684.6 327.8 683 328.5L642.2 345.8 650.5 325.1 668 317.6C669.7 316.9 670.4 315.1 669.7 313.5S667.2 311.1 665.5 311.8L653.9 316.8 659.8 301.9C660.6 300.1 659.8 298.5 658.1 297.7 656.3 297 654.6 297.7 653.9 299.5L647.9 314.4 642.4 302.5C642 301.6 641.7 300.8 641.1 300.6 640.5 300.3 639 300.4 638.2 300.8 636.5 301.5 635.8 303.3 636.5 305L644.6 322.7 636.2 343.5 618.2 302.4C617.9 301.6 617.5 300.8 616.9 300.5 616.3 300.3 614.9 300.4 614.1 300.7 612.4 301.5 611.7 303.2 612.4 304.9L632.9 351.8 625.9 369 619.4 352.6C619.1 351.7 617.9 351.3 617.3 351 616.7 350.8 616.1 350.5 615.3 350.9 613.6 351.6 612.7 354 613.6 355.1L622.6 377.3 615.9 393.9 604.4 379.6 607.7 356.1C607.6 354.7 606.8 353 605.7 352.5 605.1 352.3 605.1 352.3 604.8 352.9 603 352.2 601.1 353.5 601 355.5L599 372.6 587.5 358.3 594.2 307.2C594.1 305.8 593.2 304.7 592 304.3 591.4 304 591.4 304 591.4 304 589.4 303.9 587.7 304.6 587.6 306.6L582 351.3 568.5 333.5 570.7 314.3C570.8 312.3 569.9 311.2 568.7 310.8 568.7 310.8 568.1 310.5 568.1 310.5 566.1 310.4 564.7 311.9 564.3 313.1L563 326.4 553.1 313.5C552.5 313.2 551.9 313 551.3 312.7 550.7 312.5 549.3 312.6 548.5 313 547.1 314.5 546.4 316.3 548 317.6L557.9 330.6 544.9 328.8C542.8 328.6 541.5 330.2 541.1 331.4 540.9 333.4 542.5 334.7 544.3 335.4L563.4 337.6 577.1 354.9 533.1 349.5C531 349.4 529.1 350.7 529.2 352.2 529.1 354.2 529.8 355.8 531.8 356Z" fill="rgba(255, 255, 255, 0.58)"></path><path d="M833.6 578L842.6 588.7 834.4 590.5C833.5 590.7 832.8 591.7 832.8 592.9 833.3 593.9 834.3 594.7 835.3 594.2L845.7 592.3 853.1 600.3 831.4 604.3C830.4 604.8 829.6 605.8 829.7 606.7 830.1 608.1 831.1 608.9 832.1 608.4L856.1 603.8 867 616.4 847.9 618 862.1 630.8 845.8 634.1 829.6 615.9C829.7 615.6 829.3 615.4 828.9 615.3 828.2 615 827.3 615.2 826.6 615.8 826 616.4 826 617.7 826.5 618.7L841.2 635.1 830.4 636.9 823.4 629C823.1 628.5 822.8 628.4 822.4 628.3 822 628.2 821.1 628.3 820.5 628.9 819.9 629.5 819.8 630.8 820.5 631.4L825.9 637.9 812.2 640.9C810.9 640.8 810.5 642 810.5 643.3 810.6 644.1 811.6 644.9 813 644.5L826.6 642 823.9 649.9C823.5 651.1 824.4 652.2 825.1 652.5 826.3 652.8 827.3 652.3 827.7 651.2L831.2 641 841.9 639.2 834.9 659.6C834.6 660.7 835.1 661.8 836.2 662.1 837 662.4 838.3 662 838.7 660.9L846.5 638.2 862.8 634.9 854.9 652 872.9 646.3 867.4 662.2 843.9 666.9C842.5 667.3 842.1 668.4 842.2 669.3 842.3 670.2 843.3 670.9 844.6 670.9L866 666.4 862.5 676.6 852 679C850.8 678.9 850 680 850.4 681.3 850.5 682.2 851.5 683 852.9 682.6L861 681.2 856.5 694.4C856.1 695.6 856.6 696.6 857.7 697S859.9 696.8 860.3 695.7L864.8 682.5 870.3 688.6C871.2 689.7 872.4 689.7 873.1 689.1 874.2 688.2 874.2 687 873.2 686.2L866.3 677.9 869.8 667.7 884 684.4C885 685.1 886.3 685.1 886.9 684.5 888 683.6 888 682.4 887 681.6L871.2 663.5 876.6 647.6 887.4 663.1 891.6 644.7 902.5 657.3 894.8 680C894.4 681.1 895.3 682.3 896 682.5 897.2 682.9 898.2 682.4 898.6 681.3L905.7 660.5 912.9 668.9 909.4 679.1C909.1 680.2 909.6 681.2 910.7 681.6 911.5 681.9 912.8 681.5 913.2 680.4L915.9 672.4 925.1 682.7C926 683.9 927.2 683.9 928 682.9 928.7 682.3 929 681.1 928 680.4L919 669.7 927.2 667.8C928.1 667.7 928.9 666.7 928.8 665.8 928.6 664.9 928 664.3 927.6 664.2 927.3 664 926.9 663.9 926.4 664.2L916 666.1 908.6 658.1 930.2 654.1C931.3 653.6 932 652.6 931.9 651.7 931.8 650.8 931.2 650.2 930.4 649.9 930 649.8 930 649.8 929.5 650L905.6 654.5 894.6 641.9 913.8 640.4 899.6 627.5 915.9 624.2 932.1 642.4C932.7 643.1 933.9 643.5 935 642.6 935.6 642 935.6 640.7 935.1 639.7L920.5 623.3 931.2 621.4 938.3 629.3C938.7 630.3 940 630.4 941.2 629.5 941.8 628.8 941.8 627.6 941.3 626.6L935.8 620.5 949.5 617.5C950.7 617.5 951.1 616.4 951.1 615.1 950.9 614.6 950.2 614 949.9 613.9 949.5 613.7 949.1 613.6 948.6 613.8L935.1 616.4 937.8 608.5C938.1 607.3 937.3 606.2 936.5 605.9L936.5 605.9C935.4 605.5 934.4 606 934 607.2L930.5 617.4 919.7 619.2 926.7 598.8C927.1 597.6 926.6 596.6 925.5 596.2S923.3 596.3 922.9 597.5L915.2 620.2 898.8 623.5 906.8 606.3 888.8 612 894.2 596.1 917.8 591.5C919.2 591.1 919.5 590 919.4 589.1 919.3 588.2 918.3 587.5 917 587.4L895.8 591.6 899.1 581.8 909.6 579.4C910.9 579.4 911.7 578.4 911.3 577 911.2 576.1 910.2 575.4 908.9 575.4L900.7 577.2 905.2 564C905.6 562.8 905.1 561.8 903.9 561.4S901.8 561.5 901.4 562.7L896.9 575.9 891.4 569.8C891.1 569.3 890.7 569.2 890.3 569 889.6 568.8 889.1 569 888.6 569.3 887.4 570.2 887.4 571.4 888.4 572.2L895.3 580.5 891.8 590.7 877.7 574C877.3 573.9 876.9 573.8 876.5 573.6 875.8 573.4 875.3 573.6 874.8 573.9 873.6 574.7 873.6 576 874.6 576.8L890.4 594.8 885 610.7 874.2 595.2 870.1 613.7 859.1 601.1 866.9 578.4C867.3 577.2 866.4 576.1 865.6 575.8 864.5 575.4 863.5 575.9 863.1 577.1L856.1 597.5 848.7 589.5 852.2 579.3C852.6 578.1 852.1 577.1 851 576.7S848.8 576.9 848.4 578L845.7 585.9 836.5 575.6C836.3 575.1 835.9 575 835.5 574.9 835.2 574.7 834.3 574.9 833.6 575.5 833 576.1 832.6 577.2 833.6 578ZM876.1 604.7L884.8 617.5 899.5 612.7 893 627 904.3 637.2 889 638.7 885.6 653.6 876.8 640.9 862.1 645.6 868.5 631.8 857.4 621.2 872.5 620 876.1 604.7Z" fill="rgba(255, 255, 255, 0.58)"></path><path d="M1372.3 267.1L1367.1 250.3 1378.7 252.5C1379.9 252.8 1381.5 251.9 1382.2 250.3 1382.1 248.7 1381.2 247.2 1380 246.8L1364.8 243.6 1360.1 228 1390.9 234.8C1392.9 235.1 1394.5 234.2 1394.4 232.6 1395.1 231 1394.2 229.5 1392.2 229.2L1358.2 221.8 1353.5 207.7 1376.4 182.4 1389.2 184.9 1400.1 220.5C1400.5 220.8 1400.9 221.2 1401.4 221.6 1401.8 222 1403 222.3 1403.8 222.3 1405.7 221.8 1406.4 220.2 1405.6 218.6L1395.6 186.2 1411.3 189.8 1416.8 206.2C1416.5 206.6 1416.9 206.9 1417.3 207.3 1418.1 208.1 1419.3 208.4 1420.5 208 1421.7 207.5 1422.4 205.9 1422.3 204.3L1417.7 191 1437.3 195.2C1438.5 195.6 1440.1 194.7 1440.8 193.1 1440.7 191.5 1439.8 189.9 1438.6 189.6L1420.2 185.8 1428.1 177.1C1429.2 175.8 1428.7 173.8 1427.9 173.1 1426.6 172 1424.6 171.7 1423.5 172.9L1413.4 184.1 1397.7 180.5 1418.8 157.3C1419.9 156 1419.8 154.5 1418.6 153.3 1417.3 152.2 1415.8 152.3 1414.6 153.5L1391.3 179.3 1377.7 176.8 1367.4 144 1376 134.4 1410.9 141.8C1412.5 142.5 1414.4 141.3 1414.3 139.7 1415 138.1 1413.8 136.9 1412.2 136.2L1380.5 129.5 1391.4 117.4 1407.1 121C1408.3 121.3 1410.2 120.1 1410.5 118.9S1409.6 115.7 1407.9 115L1395.9 112.4 1409.1 97.9C1410.2 96.7 1409.7 94.7 1408.5 93.6 1407.6 92.8 1405.6 92.5 1404.5 93.8L1391.4 108.3 1387.2 96.2C1386.7 95.1 1385.5 93.9 1383.5 94.4 1382.4 94.9 1381.3 96.9 1381.7 98.1L1386.9 113.3 1376 125.3 1366.1 94.5C1365.2 93 1364 91.8 1362 92.3 1360.9 92.8 1359.8 94.8 1360.2 96L1371.4 130.3 1362.8 139.9 1329.1 132.8 1325.3 119.5 1348.6 93.8C1349.7 92.5 1349.7 91 1348.4 89.8 1347.2 88.7 1345.2 88.4 1344 89.7L1323 112.9 1317.9 97.7 1328 86.5C1329.2 85.2 1329.1 83.7 1327.8 82.5 1326.6 81.4 1325 81.5 1323.9 82.7L1316 91.4 1310.3 73.5C1309.9 72.3 1307.8 71.2 1306.7 71.7 1305.1 72.6 1304 73.8 1304.9 75.3L1310.6 94.1 1297.3 91.2C1295.8 91.3 1294.2 92.1 1293.9 93.3 1293.5 94.5 1294 95.7 1294.8 96.5 1294.8 96.5 1295.2 96.8 1296 96.8L1312.9 100.7 1318 115.9 1284.8 109.3C1283.1 108.5 1281.6 109.4 1281.3 111.4 1281.3 112.2 1281.4 113 1282.2 113.7 1282.6 114.1 1283 114.5 1283.5 114.9L1319.9 122.2 1323.7 134.7 1300.8 160 1286.3 156.8 1275.6 123.6C1275.1 121.6 1273.4 120.9 1271.9 121.8 1270.3 121.9 1269.6 123.5 1270.1 125.4L1279.9 155.5 1263.9 152.3 1259.2 137.5C1258.7 136.3 1257.1 135.6 1255.5 135.7 1254 136.6 1252.9 137.8 1253.7 139.3L1257.1 150.7 1239.9 147.2C1238.2 146.5 1237.1 147.7 1236.4 149.3 1236.4 150.1 1236.9 151.3 1237.7 152 1237.7 152 1238.1 152.4 1238.6 152.8L1257 156.6 1247.6 167C1246.8 167.8 1246.5 169.8 1247.8 171 1249 172.1 1251 171.6 1251.7 170.8L1263.4 157.9 1279.4 161.1 1256.5 186.4C1255.4 187.6 1255.8 189.6 1257.1 190.7S1259.9 191.8 1261.1 190.5L1286.2 162.7 1299.5 165.6 1309.8 198.4 1300 209.2 1264.8 201.4C1263.2 201.5 1261.6 202.4 1260.9 204 1261 204.8 1261.4 206 1262.3 206.7 1262.7 207.1 1263.1 207.5 1263.9 207.4L1295.5 214.2 1284.6 226.2 1268.6 223.1C1267.4 222.7 1265.9 223.6 1265.2 225.2 1265.2 226.8 1266.1 228.3 1267.3 228.7L1280.1 231.2 1268.1 244.5C1267.3 245.3 1267.5 247.7 1268.3 248.4 1269.5 249.6 1271.9 249.5 1272.7 248.6L1284.7 235.3 1288.1 247.5C1288.5 247.8 1288.9 248.2 1289.3 248.6 1290.1 249.3 1291.4 249.7 1292.1 249.6 1293.7 248.8 1294.4 247.1 1294.3 245.6L1289.2 230.4 1300.1 218.3 1310 249.1C1310.5 251.1 1312.1 251.8 1313.2 251.4 1315.2 250.9 1315.9 249.2 1315.8 247.7L1304.6 213.3 1314.4 202.5 1348 209.6 1352.2 222.5 1327.1 250.3C1325.9 251.5 1326 253.1 1327.3 254.2 1328.5 255.4 1330.1 255.3 1331.2 254L1354.1 228.7 1358.9 244.3 1347.2 257.2C1346.5 258 1346.6 260.4 1347.8 261.5 1349.1 262.7 1351 262.2 1351.8 261.3L1361.2 251 1366.8 268.9C1367.3 269.3 1367.3 269.3 1367.7 269.7 1368.5 270.4 1369.7 270.7 1370.5 270.7 1372 269.8 1372.8 268.2 1372.3 267.1ZM1318.9 197.6L1315.3 196.5 1314.3 193.4 1305.9 166.9 1304.9 163.8 1307.2 161.3 1325.6 140.9 1327.8 138.4 1331 139.1 1358.3 144.8 1361.5 145.5 1362.9 149 1370.9 175.1 1372.3 178.6 1370 181.1 1351.6 201.5 1349.3 204 1345.7 203 1318.9 197.6Z" fill="rgba(255, 255, 255, 0.58)"></path><path d="M511.4 139.3L496.7 118.3 498.5 109.2 503.5 116.3C503.8 117.2 504.8 117.1 505.7 116.8 506.2 116.3 506.5 115.2 506 114.7L499.4 104.8 500.9 95.8 507.8 101.8 508.7 113.7C508.7 113.7 508.8 114 508.8 114 509 114.6 509.8 115 510.5 115.1 511.4 114.8 511.9 114.2 511.9 113.2L511.2 104.6 518.1 110.7 520.4 136C520.4 136 520.2 136.4 520.2 136.4 520.4 137 521.2 137.4 522 137.5 523 137.5 523.7 136.6 523.3 135.7L521.5 113.5 530.2 120.6 531 130.5C531 130.5 531 130.5 531.1 130.8 531.3 131.4 531.9 131.9 532.6 132 533.5 131.7 534.3 131.1 534.2 130L533.6 123.5 539.9 128.7C540.5 129.5 541.4 129.2 541.9 128.7 542.7 128 542.7 127 541.7 126.3L535.8 121 542.1 120.8C543 120.4 543.8 119.8 543.5 118.9 543.5 117.9 543 117.4 542 117.4L532.1 118.2 523.7 111 546.1 109.1C546.8 109.2 547.5 108.3 547.5 107.3 547.3 106.7 546.7 105.9 545.6 105.9L520.3 108.2 513.4 102.2 522 101.5C523 101.4 523.4 100.6 523.3 99.6 523.4 98.9 522.5 98.2 521.8 98.1L510 99.3 502.7 93.4 511.5 90.3 522.1 95.3C522.9 95.7 523.8 95.4 524.2 94.5 524.7 94 524.3 92.8 523.5 92.4L515.7 88.8 524.4 85.6 547.5 96.7C548.3 97.1 549.2 96.8 549.6 96 550 95.2 549.6 94.3 548.8 93.9L528.7 84.1 538.9 80.4 547.9 84.7C548.7 85.1 549.6 84.8 550 83.9 550.4 83.1 550.1 82.2 549.3 81.8L543.4 78.8 550.9 76.1C551.8 75.8 552.2 75 551.9 74.1 551.6 73.2 550.8 72.8 549.9 73.1L542.3 75.8 545 70.1C545.4 69.3 545.1 68.4 544.3 68S542.6 67.9 542.2 68.7L538.1 77.3 527.6 81.1 537 61C537.4 60.2 537.1 59.3 536.3 58.9 535.5 58.6 534.6 58.9 534.2 59.7L523.4 82.6 514.6 85.7 518.3 78C518.7 77.1 518.4 76.2 517.5 75.9 516.7 75.5 515.8 75.8 515.4 76.6L510.4 87.3 502 90.3 503.6 81.5 513.4 74.6C513.9 74.1 514.1 73 513.6 72.5 513 71.7 512.3 71.6 511.4 71.9L504.3 76.9 505.9 68.1 526.9 53.5C527.6 52.9 527.7 52.1 527.4 51.2 526.8 50.4 525.8 50.5 525.2 50.7L506.6 63.5 508.8 52.5 516.7 46.9C517.6 46.6 517.6 45.6 517.2 44.7 516.7 44.2 515.6 43.9 514.8 44.5L509.6 48.1 510.9 40.2C511.3 39.4 510.6 38.6 509.5 38.3 508.8 38.2 508 38.8 507.9 39.5L506.4 47.6 502.7 42.1C502.1 41.3 501.1 41.3 500.6 41.8 499.7 42.1 499.6 42.9 499.8 43.5 499.9 43.8 499.9 43.8 500 44.1L505.6 51.9 503.4 62.9 490.7 44.7C490.4 43.8 489.4 43.8 488.5 44.1 488 44.6 487.9 45.3 488.1 46 488.2 46.3 488.2 46.3 488.2 46.3L502.7 67.6 501 76.3 496.1 69.3C495.5 68.5 494.8 68.4 493.9 68.7 493.4 69.2 493 70 493.2 70.6 493.3 70.9 493.3 70.9 493.4 71.2L500.3 81 498.7 89.7 491.9 84 490.7 72.2C490.7 71.2 489.8 70.5 489.1 70.4 488.2 70.7 487.4 71.4 487.7 72.3L488.4 80.9 481.3 75.3 479.2 49.5C479.3 48.8 478.4 48.1 477.6 48 476.7 48.3 475.9 49 476 50L477.8 72.1 469.4 64.9 468.7 55.3C468.7 54.3 467.7 53.6 466.8 53.9 466.1 53.8 465.3 54.5 465.4 55.5L466 62 459.7 56.8C459.2 56.3 458.2 56.3 457.4 57 457.2 57.4 457.1 58.1 457.3 58.7 457.3 58.7 457.4 59 457.5 59.3L463.8 64.5 457.3 65.2C456.6 65.1 455.9 66 455.8 66.7 455.9 67 455.9 67 455.9 67 456.2 67.9 457 68.3 457.6 68.1L467.2 67.4 475.9 74.5 453.5 76.4C452.6 76.7 452.1 77.2 452.1 78.2 452.1 78.2 452.2 78.5 452.2 78.5 452.4 79.1 452.9 79.6 454 79.6L479.4 77.6 486.2 83.3 477.6 84C476.7 84.4 475.9 85 476.3 85.9 476 86 476.1 86.3 476.1 86.3 476.3 86.9 477.1 87.3 477.8 87.4L489.6 86.2 496.5 92.2 488.1 95.2 477.5 90.2C476.7 89.8 475.5 90.3 475.1 91.1 475 91.8 475.3 92.7 475.8 93.2L483.9 96.8 475.2 99.9 452.2 89.1C451.4 88.7 450.5 89 450.1 89.8 449.7 90.6 450.1 91.5 450.9 91.9L470.9 101.4 460.4 105.2 451.8 101.1C451 100.7 450.1 101.1 449.7 101.9S449.6 103.6 450.5 104L456.2 106.7 448.7 109.4C447.7 109.7 447.4 110.5 447.7 111.4 448 112.3 448.8 112.7 449.7 112.4L457.3 109.7 454.7 115.7C454.5 116.1 454.3 116.6 454.4 116.9 454.5 117.2 455 117.6 455.4 117.8 456.2 118.2 457.1 117.9 457.5 117.1L461.5 108.2 472 104.4 462.7 124.8C462.5 125.2 462.3 125.6 462.4 125.9 462.5 126.2 463 126.7 463.4 126.9 464.2 127.3 465.1 126.9 465.5 126.1L476.2 102.9 485 99.8 481 107.7C480.8 108.1 481 108.7 481.1 109 481.2 109.3 481.3 109.6 481.8 109.8 482.6 110.1 483.8 109.7 483.9 109L489.2 98.3 497.6 95.2 496.1 104.3 486.2 110.9C485.7 111.4 485.4 112.2 485.6 112.8 485.7 113.1 485.7 113.1 486 113 486.3 113.9 487.4 114.2 488.2 113.6L495.3 108.6 493.8 117.7 472.4 132.1C471.9 132.7 471.9 133.4 472.1 134 472.2 134.3 472.2 134.3 472.2 134.3 472.8 135.1 473.6 135.4 474.4 134.8L493 122.1 490.8 133 482.9 138.6C482.1 139.2 482 139.9 482.2 140.5 482.2 140.5 482.4 140.8 482.4 140.8 483 141.6 484 141.6 484.6 141.4L490 137.4 488.4 145.4C488.5 145.7 488.6 146 488.8 146.3 488.9 146.6 489.4 147.1 489.8 147.3 490.8 147.3 491.7 147 491.7 146L493.2 137.9 496.9 143.4C497.5 144.2 498.5 144.2 499.1 144 499.9 143.4 499.9 142.4 499.6 141.4L494 133.6 495.9 122.7 508.6 140.9C509.2 141.7 510.3 142 510.8 141.5 511.6 140.9 512 140.1 511.4 139.3Z" fill="rgba(255, 255, 255, 0.58)"></path><path d="M402.2 635.4L382.7 630.7 391.6 620.6C392.7 619.6 392.7 617.5 391.6 615.9 390 615.1 387.9 615 386.9 616L374.8 629.1 356.7 624.6 381.4 598.3C382.9 596.5 383 594.4 381.4 593.6 380.2 591.9 378.2 591.9 376.7 593.7L349.5 622.8 333 619.2 321.5 581.9 331.5 570.8 372.7 580.8C373.4 580.6 374 580.5 374.6 580.3 375.2 580.1 376.2 579.1 376.7 578.3 377.3 576.1 376.1 574.4 374.1 574.4L336.5 565.2 349.1 551.9 368.5 556C368.7 556.7 369.3 556.5 369.9 556.3 371.1 555.9 372.1 554.9 372.4 553.5 372.6 552.1 371.4 550.4 369.8 549.6L354.1 546.4 369.7 529.5C370.7 528.6 370.8 526.5 369.6 524.9 368 524 366 524 365 525L350.4 540.8 346.5 528C345.9 526.2 343.7 525.5 342.5 525.9 340.6 526.4 339.2 528.2 339.7 530.1L344.8 546.6 332.2 559.8 321.6 525.6C321.1 523.7 319.5 522.9 317.6 523.5 315.8 524 314.9 525.6 315.5 527.5L327.2 565.4 316.8 577.3 278.5 568.3 274.2 554.2 301.8 524.3C303.5 523.1 303.3 520.5 301.7 519.6 300.5 518 298.7 518.6 297.1 519.7L271.9 546.9 266.5 529.1 279.1 515.9C280.2 514.9 280 512.2 279 511.2S275.4 510.3 273.8 511.5L264.2 521.8 257.6 500.4C257.1 498.5 254.9 497.9 253 498.4 251.8 498.8 250.3 500.6 250.9 502.4L257.5 523.9 243.2 520.9C241.8 520.7 239.9 521.2 239.3 523.4 239 524.8 240.4 527.1 241.8 527.3L259.7 531.2 265.2 548.9 229.2 540.6C227.1 540.5 225.3 541.1 224.6 543.3 224.4 544.7 225.8 547 227.2 547.2L267.5 556.3 271.8 570.4 245.2 599.3 229.9 595.3 218.2 557.3C217.7 555.5 216.1 554.7 214.2 555.2 212.4 555.8 210.9 557.6 211.5 559.4L222 593.7 204.1 589.8 199 573.3C198.5 571.5 196.9 570.6 195 571.2 193.2 571.7 192.3 573.3 192.9 575.2L196.9 588 175.9 583.1C174.5 582.8 172.3 584.2 172 585.6 172 587.6 172.5 589.5 174.6 589.5L196.3 594.9 185.7 606.2C184.9 607.8 184.8 609.8 185.8 610.8 186.8 611.9 188.2 612.1 189.4 611.7 189.4 611.7 190 611.5 190.5 610.7L204.1 596.5 222.1 600.4 196.1 629.1C194.4 630.3 194.4 632.3 196.2 633.7 197 634.2 197.8 634.6 199 634.2 199.6 634 200.2 633.8 200.8 633.7L229.3 602.1 243.8 605.7 255.3 643 243.7 655.3 204.8 646.5C202.6 645.8 200.9 647 200.9 649 200 650.6 201.2 652.3 203.4 653L238.7 660.9 226.2 674.7 208.9 670.7C207.5 670.5 205.8 671.6 205 673.2 204.9 675.3 205.5 677.1 207.5 677.1L220.6 680.5 207.1 695.3C205.4 696.5 206 698.4 207.2 700 208 700.4 209.4 700.7 210.6 700.3 210.6 700.3 211.2 700.1 211.8 699.9L226.4 684.1 231.1 699.4C231.4 700.6 233.2 702 235.1 701.5 236.9 700.9 237.6 698.7 237.2 697.5L231.4 678.5 243.8 664.6 255.3 702C255.9 703.8 258.1 704.4 259.9 703.9S262.6 701.7 262 699.9L249.4 658.9 260 647.6 298.3 656.6 303.2 672.5 274.9 702.6C274.1 704.2 274 706.2 275.2 707.9 276 708.3 277.4 708.6 278.6 708.2 279.3 708 279.9 707.8 280.3 707L305.4 679.9 310.9 697.6 298.4 711.5C297.4 712.5 297.3 714.5 298.5 716.1 300.1 717 302.1 717 303.2 716L313.1 704.9 319.1 724.5C319.5 725.7 321.9 727 323.1 726.6 325 726.1 326.3 723.7 325.9 722.5L319.9 702.9 333.7 706.6C334.4 706.5 335 706.3 335.6 706.1 336.8 705.7 337.8 704.7 338.3 703.9 338.3 701.9 337.1 700.2 335.5 699.4L317.6 695.5 312.2 677.8 348.2 686.1C350.4 686.8 352.1 685.6 352.3 684.2 352.9 682 351.8 680.3 350.2 679.5L309.9 670.4 305 654.5 331.6 625.6 346.7 629 359.3 670C359.9 671.8 361.5 672.7 363.3 672.1 365.1 671.6 366 670 365.4 668.1L354 630.8 372.1 635.3 377.9 654.2C378.3 655.5 380.7 656.7 382.5 656.2 384.3 655.6 385 653.4 384.6 652.2L379.9 636.9 400.9 641.8C401.5 641.6 401.5 641.6 402.1 641.5 403.3 641.1 404.3 640.1 404.8 639.3 404.8 637.3 403.6 635.6 402.2 635.4ZM302.8 647.2L299.6 650.2 296 649.3 265 642.1 261.4 641.2 260.3 637.5 251.1 607.5 249.9 603.8 252.4 601.1 274 577.7 276.5 574.9 280.8 575.6 311.2 583 315.4 583.7 316.5 587.4 325.7 617.4 326.9 621.1 323.7 624 302.8 647.2Z" fill="rgba(255, 255, 255, 0.58)"></path><path d="M1065 602.2L1065.4 591 1071.3 594.4C1071.9 594.8 1072.8 594.6 1073.5 593.9 1073.8 593 1073.6 592 1072.7 591.7L1065.5 587.3 1065.5 578.6 1080.5 587.8C1081.3 588.1 1082.3 587.9 1082.7 587.3 1083.3 586.3 1083.1 585.3 1082.2 585.1L1065.6 574.8 1066 561.5 1078.1 570.9 1076.6 555.6 1088.1 562.5 1087.8 582C1087.5 582.1 1087.7 582.4 1087.8 582.7 1088.2 583.2 1088.7 583.7 1089.5 583.6 1090.2 583.6 1090.9 582.9 1091.1 582L1091.3 564.4 1098.6 569.1 1098.5 577.5C1098.4 578 1098.6 578.3 1098.7 578.5 1098.9 578.8 1099.5 579.2 1100.2 579.2 1100.9 579.2 1101.6 578.4 1101.5 577.7L1101.8 571 1111.5 576.6C1112.3 577.3 1113.1 576.8 1113.8 576.1 1114.2 575.5 1114 574.5 1113 574L1103.6 568.2 1109.5 564.9C1110.3 564.5 1110.4 563.3 1110.1 562.8 1109.7 561.9 1108.8 561.7 1107.9 562.1L1100.4 566.3 1093 561.6 1108.2 553.2C1109 552.8 1109.3 551.9 1108.8 551.1 1108.5 550.5 1107.5 550 1106.6 550.4L1089.8 559.7 1078.4 552.8 1092.3 547 1078.6 540.7 1090.4 534.2 1106.8 544.1C1107.8 544.7 1108.7 544.2 1109.1 543.6 1109.5 543 1109.3 542 1108.6 541.3L1093.5 532.5 1101 528.3 1108.5 532.6C1109.2 533.3 1110.2 533.1 1110.8 532.1 1111.2 531.5 1111 530.5 1110 530L1104.4 526.5 1114.2 521.1C1115 520.6 1115.3 519.7 1114.8 518.9S1113.5 517.8 1112.7 518.3L1102.8 523.7 1102.9 517.1C1103 515.9 1102.2 515.2 1101.5 515.3 1100.4 515.2 1099.7 515.9 1099.9 516.9L1099.5 525.5 1091.9 529.7 1092.5 512.2C1092.3 511.2 1091.6 510.5 1090.9 510.5 1089.7 510.4 1089 511.2 1089.2 512.2L1088.8 531.4 1077.1 537.9 1079 522.9 1066.6 531.5 1067 518.2 1083.8 508.9C1084.6 508.5 1084.7 507.3 1084.4 506.8 1084 505.9 1083.1 505.7 1082.2 506.1L1066.8 514.6 1067 505.7 1074.6 501.6C1075.5 501.1 1075.7 500.2 1075.2 499.4 1074.9 498.8 1073.9 498.3 1073.1 498.8L1067.2 502 1067.3 491C1067.4 489.8 1066.7 489.1 1065.7 489.3 1065 489.4 1064.1 489.8 1064.3 490.8L1063.9 502 1058 498.6C1057.4 498.2 1056.4 498.4 1056 499 1055.6 499.6 1055.7 500.3 1055.8 500.6 1056 500.9 1056.1 501.2 1056.6 501.3L1063.7 505.7 1063.8 514.5 1048.8 505.2C1048 504.9 1047 505.1 1046.6 505.7 1046.2 506.3 1046.2 507 1046.5 507.6 1046.6 507.8 1046.6 507.8 1047.1 508L1063.7 518.2 1063.3 531.5 1051.2 522.1 1052.7 537.4 1041.2 530.5 1041.5 511C1041.4 510.3 1041 509.5 1039.8 509.4 1039.1 509.4 1038.4 510.2 1038.2 511L1038 528.7 1030.7 523.9 1030.8 515.5C1031 514.6 1030.3 513.9 1029.1 513.8 1028.4 513.9 1027.7 514.6 1027.5 515.5L1027.4 522.1 1017.8 516.4C1017 515.7 1016.2 516.2 1015.5 516.9 1015.4 517.4 1015.4 518.1 1015.6 518.4 1015.7 518.7 1015.9 518.9 1016.3 519.1L1025.7 524.8 1019.8 528.1C1019 528.6 1018.9 529.7 1019.2 530.3L1019.2 530.3C1019.6 531.1 1020.5 531.4 1021.3 530.9L1028.9 526.7 1036.3 531.4 1021.1 539.8C1020.3 540.2 1020 541.1 1020.5 542S1021.8 543 1022.7 542.6L1039.5 533.3 1050.9 540.2 1037 546 1050.7 552.4 1038.9 558.8 1022.5 548.9C1021.5 548.4 1020.6 548.8 1020.2 549.4 1019.8 550 1020 551 1020.7 551.7L1035.6 560.7 1028.3 564.7 1020.8 560.4C1020.1 559.7 1019.1 559.9 1018.5 560.9 1018.1 561.5 1018.3 562.5 1019 563.2L1024.9 566.6 1015.1 572C1014.3 572.4 1014 573.3 1014.5 574.1S1015.8 575.2 1016.6 574.8L1026.5 569.4 1026.4 575.9C1026.3 576.4 1026.5 576.7 1026.6 576.9 1026.9 577.5 1027.4 577.6 1027.8 577.8 1028.9 577.9 1029.6 577.1 1029.4 576.1L1029.8 567.5 1037.4 563.3 1036.8 580.8C1036.9 581.1 1037.1 581.4 1037.2 581.7 1037.6 582.2 1038 582.4 1038.4 582.5 1039.6 582.6 1040.3 581.8 1040.1 580.9L1040.5 561.6 1052.2 555.2 1050.3 570.1 1062.7 561.5 1062.3 574.8 1045.5 584.1C1044.7 584.5 1044.6 585.7 1044.9 586.2 1045.3 587.1 1046.2 587.3 1047.1 586.9L1062.2 578.5 1062.2 587.3 1054.7 591.4C1053.8 591.9 1053.6 592.8 1054 593.6S1055.4 594.7 1056.2 594.2L1062.1 591 1062 602C1061.8 602.5 1062 602.8 1062.2 603 1062.3 603.3 1062.9 603.7 1063.6 603.7 1064.3 603.7 1065.2 603.2 1065 602.2ZM1054.3 563.5L1056 551.3 1044.7 546.2 1056.3 541.3 1055.1 529.1 1065 536.5 1075 529.5 1073.3 541.7 1084.6 546.9 1073.3 551.6 1074.2 563.9 1064.6 556.4 1054.3 563.5Z" fill="rgba(255, 255, 255, 0.58)"></path><path d="M209.6 281.7L196.1 271.8 205.2 267.3C206.2 266.9 206.8 265.6 206.4 264.1 205.6 263 204.2 262.4 203.1 263.3L191.6 268.5 180.7 261.2 204.8 250.4C205.8 249.6 206.4 248.2 206 247.2 205.2 245.7 203.8 245 202.8 245.9L176.1 257.9 159.8 246.3 181.7 239.2 161.5 228.2 179.6 219.7 203.7 236.4C203.6 236.8 204.1 236.9 204.6 236.9 205.5 237 206.5 236.6 207.1 235.7 207.7 234.8 207.3 233.3 206.4 232.3L184.7 217.3 196.7 212.1 207.1 219.3C207.6 219.8 208.1 219.9 208.5 219.9 209 220 210 219.6 210.6 218.7 211.1 217.8 210.8 216.3 209.9 215.7L201.8 209.7 216.9 202.4C218.4 202 218.5 200.6 218.2 199.1 217.8 198.1 216.4 197.5 214.8 198.3L199.8 205.1 200.7 195.1C200.8 193.7 199.5 192.6 198.5 192.5 197.1 192.4 196 193.2 195.9 194.7L194.7 207.6 182.7 212.7 185 186.9C185.2 185.5 184.3 184.5 182.9 184.3 181.9 184.2 180.4 185.1 180.3 186.5L177.6 215.2 159.5 223.6 164 201.4 144.6 213.1 146.4 193 172.6 181C174.1 180.1 174.2 178.7 173.8 177.7 173.4 176.7 172.1 176.1 170.6 176.4L146.9 187.8 148.1 174.9 159.7 169.2C161.2 168.8 161.8 167.4 160.9 165.9 160.5 164.9 159.2 164.3 157.6 165.1L148.6 169.1 150.1 152.4C150.3 151 149.4 149.9 148 149.8S145.5 150.5 145.3 152L143.8 168.7 135.6 163.1C134.3 162 132.8 162.4 132.3 163.3 131.2 164.6 131.5 166.1 132.9 166.7L143.3 174.4 142.1 187.3 120.9 171.9C119.5 171.3 118 171.6 117.4 172.5 116.3 173.9 116.7 175.4 118.1 176L141.6 192.6 139.8 212.7 122.9 197.6 123.2 220.3 106.9 208.7 109.5 180C109.7 178.6 108.3 177.5 107.3 177.4 105.9 177.3 104.9 178.1 104.7 179.6L102.3 205.9 91.5 198.1 92.7 185.2C92.8 183.8 91.9 182.7 90.5 182.6 89.5 182.5 88 183.3 87.9 184.8L87 194.8 73.4 185.4C72 184.3 70.5 184.6 69.9 186 69.4 186.9 69.2 188.4 70.6 189L84.2 198.9 75.1 203.4C74.1 203.8 73.5 205.2 73.9 206.2 74.3 207.2 75.2 207.7 75.7 207.8 76.1 207.8 76.6 207.9 77.1 207.4L88.7 202.2 99.6 209.5 75.5 220.3C74.4 221.1 73.8 222.5 74.2 223.5 74.6 224.5 75.5 225.1 76.5 225.2 76.9 225.2 76.9 225.2 77.5 224.8L104.1 212.8 120.4 224.4 98.5 231.5 118.7 242.6 100.6 251 76.6 234.4C75.7 233.8 74.2 233.7 73.2 235 72.6 235.9 72.9 237.4 73.8 238.4L95.6 253.4 83.5 258.6 73.1 251.4C72.2 250.3 70.8 250.7 69.7 252 69.1 253 69.5 254.4 70.3 255.5L78.5 261 63.4 268.3C61.9 268.7 61.7 270.1 62.1 271.6 62.5 272.1 63.4 272.7 63.9 272.7 64.4 272.8 64.9 272.8 65.4 272.4L80.5 265.6 79.6 275.6C79.4 277 80.8 278.1 81.7 278.2L81.7 278.2C83.2 278.3 84.2 277.5 84.3 276L85.5 263.1 97.6 258 95.2 283.8C95.1 285.2 95.9 286.3 97.4 286.4S99.9 285.7 100 284.2L102.6 255.5 120.7 247.1 116.3 269.3 135.7 257.6 133.8 277.7 107.7 289.7C106.1 290.6 106 292 106.4 293 106.8 294 108.2 294.6 109.7 294.3L133.3 283.4 132.2 295.8 120.6 301.5C119.1 301.9 118.5 303.3 119.3 304.8 119.7 305.8 121.1 306.4 122.6 306L131.7 301.6 130.1 318.3C130 319.7 130.9 320.8 132.3 320.9S134.8 320.2 134.9 318.7L136.4 302 144.6 307.6C145 308.1 145.5 308.1 146 308.2 146.9 308.3 147.5 307.8 148 307.4 149.1 306.1 148.7 304.6 147.3 304L137 296.3 138.1 283.4 159.4 298.8C159.9 298.9 160.3 298.9 160.8 298.9 161.8 299 162.3 298.6 162.8 298.2 163.9 296.8 163.6 295.3 162.2 294.7L138.6 278.1 140.5 258 157.4 273.1 157.1 250.4 173.4 262 170.7 290.7C170.6 292.1 171.9 293.2 172.9 293.3 174.3 293.4 175.4 292.6 175.5 291.1L177.9 265.3 188.8 272.6 187.6 285.5C187.5 286.9 188.3 288 189.8 288.1S192.2 287.4 192.4 285.9L193.3 275.9 206.9 285.3C207.3 285.9 207.8 285.9 208.3 285.9 208.8 286 209.8 285.6 210.3 284.7 210.9 283.8 211 282.3 209.6 281.7ZM152.6 262.5L138.8 250.2 122.9 259.8 126.6 241.3 110.5 232.6 127.9 226.5 127.7 208.2 141.5 220.5 157.3 210.9 153.7 228.9 169.8 238.1 152.4 243.7 152.6 262.5Z" fill="rgba(255, 255, 255, 0.58)"></path><path d="M605.9 557.6L626.5 582.1 625.3 593.6 618.4 585.4C617.8 584.3 616.6 584.4 615.5 584.9 614.9 585.6 614.7 587.1 615.4 587.6L624.7 599.2 623.9 610.6 614.6 603.9 612.2 589.1C612.2 589.1 612 588.8 612 588.8 611.7 588 610.6 587.7 609.7 587.6 608.6 588.1 608 588.8 608.2 590.1L610 600.7 600.7 594 595.1 562.7C595.1 562.7 595.2 562.1 595.2 562.1 594.9 561.4 593.8 561 593 561 591.7 561.1 590.9 562.4 591.4 563.5L596.2 590.8 584.6 582.9 582.5 570.7C582.5 570.7 582.5 570.7 582.3 570.3 582 569.6 581.3 569.1 580.4 569 579.3 569.5 578.4 570.4 578.5 571.7L580 579.8 571.6 574C570.8 573 569.7 573.5 569.1 574.2 568.2 575.1 568.3 576.4 569.6 577.1L577.6 583.1 569.7 584.1C568.6 584.6 567.7 585.5 568.2 586.6 568.3 587.8 569 588.4 570.3 588.2L582.5 586.1 593.8 594.1 566 599C565.2 599 564.4 600.2 564.5 601.5 564.9 602.2 565.7 603.1 567 603L598.3 597.3 607.6 604 597 605.9C595.7 606 595.3 607.1 595.5 608.3 595.4 609.2 596.7 610 597.6 610L612.2 607.2 621.8 613.8 611.3 618.6 597.5 613.6C596.4 613.2 595.3 613.7 594.9 614.8 594.4 615.5 595 616.9 596.1 617.3L606.2 621 595.7 625.9 565.8 614.6C564.7 614.2 563.6 614.7 563.2 615.8 562.8 616.8 563.3 617.9 564.4 618.3L590.6 628.2 578.2 633.9 566.6 629.7C565.5 629.3 564.4 629.8 564 630.8 563.6 631.9 564.1 633 565.2 633.4L572.8 636.5 563.7 640.7C562.6 641.2 562.2 642.2 562.7 643.3 563.3 644.4 564.3 644.8 565.4 644.3L574.5 640.1 571.8 647.5C571.4 648.6 571.9 649.7 572.9 650.1S575.1 649.9 575.5 648.9L579.6 637.7 592.3 631.9 582.7 657.9C582.3 658.9 582.8 660 583.9 660.4 585 660.8 586 660.3 586.4 659.2L597.3 629.5 607.9 624.6 604.2 634.7C603.8 635.8 604.3 636.9 605.3 637.3 606.4 637.6 607.5 637.1 607.9 636.1L613 622.3 623.1 617.6 622.1 628.6 610.7 638.3C610.1 639 609.9 640.4 610.6 641 611.5 641.9 612.4 641.9 613.5 641.4L621.7 634.5 620.7 645.6 596.2 666.2C595.3 667 595.3 667.9 595.8 669 596.7 669.9 597.9 669.8 598.7 669.4L620.3 651.5 618.8 665.4 609.6 673.2C608.6 673.7 608.7 674.9 609.2 676 609.9 676.6 611.3 676.8 612.2 675.9L618.3 670.9 617.6 680.9C617.2 682 618.1 682.9 619.5 683.1 620.4 683.2 621.4 682.3 621.4 681.4L622.4 671.2 627.6 677.7C628.4 678.6 629.7 678.4 630.3 677.7 631.4 677.2 631.4 676.3 631 675.6 630.9 675.2 630.9 675.2 630.7 674.9L622.9 665.7 624.4 651.8 642.2 673.1C642.7 674.2 644 674 645.1 673.5 645.6 672.8 645.6 671.9 645.3 671.2 645.1 670.8 645.1 670.8 645.1 670.8L624.8 645.9 625.8 634.8 632.7 643.1C633.6 644 634.5 644 635.6 643.5 636.1 642.8 636.5 641.8 636.2 641 636 640.7 636 640.7 635.9 640.3L626.2 628.9 627.2 617.9 636.3 624.2 639.1 638.8C639.3 640.1 640.5 640.8 641.4 640.8 642.5 640.3 643.4 639.5 642.9 638.4L641.1 627.8 650.5 634 656 665.8C656 666.7 657.2 667.4 658.1 667.5 659.2 667 660.1 666.1 660 664.8L655.3 637.5 666.5 645.5 668.5 657.4C668.6 658.7 669.8 659.4 670.9 658.9 671.8 658.9 672.7 658.1 672.6 656.8L671 648.7 679.5 654.5C680.2 655.1 681.4 654.9 682.3 654.1 682.5 653.5 682.6 652.6 682.2 651.9 682.2 651.9 682.1 651.5 681.9 651.2L673.5 645.4 681.6 643.8C682.5 643.9 683.2 642.6 683.2 641.7 683.1 641.4 683.1 641.4 683.1 641.4 682.6 640.3 681.5 639.9 680.8 640.2L668.9 642.2 657.3 634.3 685 629.4C686.1 628.9 686.7 628.2 686.5 627 686.5 627 686.4 626.6 686.4 626.6 686 625.9 685.3 625.3 684.1 625.5L652.6 630.8 643.5 624.4 654.1 622.6C655.2 622.1 656.1 621.2 655.6 620.1 656 620 655.8 619.6 655.8 619.6 655.5 618.9 654.4 618.5 653.5 618.5L638.9 621.3 629.6 614.5 639.8 609.8 653.6 614.9C654.7 615.3 656.1 614.6 656.5 613.6 656.6 612.7 656 611.6 655.3 611L644.9 607.5 655.4 602.6 685.2 613.5C686.2 613.9 687.3 613.4 687.7 612.3 688.1 611.3 687.6 610.2 686.5 609.8L660.5 600.2 673.2 594.4 684.4 598.5C685.4 598.8 686.5 598.3 686.9 597.3S686.8 595.1 685.7 594.7L678.3 592 687.4 587.8C688.4 587.3 688.8 586.2 688.3 585.2 687.8 584.1 686.8 583.7 685.7 584.2L676.6 588.4 679.2 580.6C679.4 580.1 679.6 579.5 679.4 579.2 679.2 578.8 678.5 578.2 678 578 676.9 577.7 675.8 578.2 675.4 579.2L671.5 590.7 658.8 596.6 668.2 570.2C668.4 569.7 668.6 569.2 668.4 568.8 668.3 568.4 667.6 567.9 667 567.7 666 567.3 664.9 567.8 664.5 568.9L653.7 599 643.2 603.8 647.3 593.6C647.5 593.1 647.1 592.3 647 592 646.8 591.6 646.6 591.2 646.1 591 645 590.7 643.6 591.3 643.6 592.2L638.1 606.2 628 610.9 628.8 599.5 640.4 590.2C641 589.5 641.3 588.4 641 587.7 640.8 587.3 640.8 587.3 640.5 587.5 640 586.4 638.6 586.2 637.6 587L629.4 593.9 630.3 582.5 655.2 562.2C655.8 561.5 655.8 560.6 655.4 559.8 655.3 559.5 655.3 559.5 655.3 559.5 654.4 558.5 653.4 558.2 652.4 559L630.8 577 632.3 563.1 641.4 555.3C642.4 554.4 642.4 553.5 642.1 552.8 642.1 552.8 641.9 552.4 641.9 552.4 641 551.5 639.8 551.7 639 552L632.8 557.5 633.8 547.4C633.6 547 633.5 546.6 633.3 546.3 633.1 545.9 632.4 545.4 631.9 545.2 630.6 545.3 629.6 545.8 629.7 547.1L628.7 557.2 623.5 550.8C622.6 549.9 621.4 550 620.7 550.4 619.7 551.2 619.9 552.5 620.4 553.6L628.2 562.8 627 576.5 609.2 555.2C608.4 554.3 606.9 554.1 606.4 554.8 605.5 555.7 605.1 556.7 605.9 557.6Z" fill="rgba(255, 255, 255, 0.58)"></path></g><defs><mask id="SvgjsMask1026"><rect width="1440" height="678" fill="#ffffff"></rect></mask><filter id="SvgjsFilter1027"><feGaussianBlur stdDeviation="1"></feGaussianBlur></filter></defs></svg>