<svg viewBox="0 0 458 50" fill="none" xmlns="http://www.w3.org/2000/svg">
<path d="M0.712 50V3.92H37.512C39.2187 3.92 40.7547 4.34666 42.12 5.2C43.528 6.01066 44.6587 7.12 45.512 8.528C46.3653 9.89333 46.792 11.4293 46.792 13.136V40.784C46.792 42.4907 46.3653 44.048 45.512 45.456C44.6587 46.8213 43.528 47.9307 42.12 48.784C40.7547 49.5947 39.2187 50 37.512 50H0.712ZM10.248 40.72H37.064C37.192 40.72 37.2773 40.6987 37.32 40.656C37.4053 40.5707 37.448 40.464 37.448 40.336V13.584C37.448 13.456 37.4053 13.3707 37.32 13.328C37.2773 13.2427 37.192 13.2 37.064 13.2H10.248C10.1627 13.2 10.0773 13.2427 9.992 13.328C9.90667 13.3707 9.864 13.456 9.864 13.584V40.336C9.864 40.464 9.90667 40.5707 9.992 40.656C10.0773 40.6987 10.1627 40.72 10.248 40.72ZM62.663 50C61.0417 50 59.5483 49.5947 58.183 48.784C56.8177 47.9307 55.7083 46.8213 54.855 45.456C54.0443 44.0907 53.639 42.5973 53.639 40.976V21.904C53.639 20.2827 54.0443 18.7893 54.855 17.424C55.7083 16.0587 56.8177 14.9707 58.183 14.16C59.5483 13.3067 61.0417 12.88 62.663 12.88H82.247C83.911 12.88 85.4257 13.3067 86.791 14.16C88.1563 14.9707 89.2443 16.0587 90.055 17.424C90.8657 18.7893 91.271 20.2827 91.271 21.904V36.048H62.727V40.528C62.727 40.6133 62.7697 40.6987 62.855 40.784C62.9403 40.8693 63.0257 40.912 63.111 40.912H91.271V50H62.663ZM62.727 27.92H82.183V22.352C82.183 22.2667 82.1403 22.1813 82.055 22.096C81.9697 22.0107 81.8843 21.968 81.799 21.968H63.111C63.0257 21.968 62.9403 22.0107 62.855 22.096C62.7697 22.1813 62.727 22.2667 62.727 22.352V27.92ZM113.198 50L92.7815 12.88H103.278L117.23 38.608L131.246 12.88H141.742L121.262 50H113.198ZM161.008 50L144.24 3.92H154.032L164.592 32.784L175.152 3.92H183.856L194.48 32.784L205.04 3.92H214.832L198.064 50H190.896L179.504 18.896L168.176 50H161.008ZM226.415 50C224.793 50 223.279 49.5947 221.871 48.784C220.505 47.9307 219.417 46.8213 218.607 45.456C217.796 44.0907 217.391 42.5973 217.391 40.976V26.832H245.935V22.352C245.935 22.2667 245.892 22.1813 245.807 22.096C245.721 22.0107 245.636 21.968 245.551 21.968H217.391V12.88H245.999C247.663 12.88 249.177 13.3067 250.543 14.16C251.908 14.9707 252.996 16.0587 253.807 17.424C254.617 18.7893 255.023 20.2827 255.023 21.904V50H226.415ZM226.863 40.912H245.935V34.96H226.479V40.528C226.479 40.6133 226.521 40.6987 226.607 40.784C226.692 40.8693 226.777 40.912 226.863 40.912ZM260.328 50V21.904C260.328 20.2827 260.733 18.7893 261.544 17.424C262.397 16.0587 263.507 14.9707 264.872 14.16C266.28 13.3067 267.795 12.88 269.416 12.88H289.96V21.968H269.8C269.715 21.968 269.629 22.0107 269.544 22.096C269.459 22.1813 269.416 22.2667 269.416 22.352V50H260.328ZM293.891 50V21.904C293.891 20.2827 294.296 18.7893 295.107 17.424C295.96 16.0587 297.069 14.9707 298.435 14.16C299.843 13.3067 301.357 12.88 302.979 12.88H323.523V21.968H303.363C303.277 21.968 303.192 22.0107 303.107 22.096C303.021 22.1813 302.979 22.2667 302.979 22.352V50H293.891ZM328.516 50V12.88H337.604V50H328.516ZM328.516 9.872V0.719997H337.604V9.872H328.516ZM351.913 50C350.292 50 348.798 49.5947 347.433 48.784C346.068 47.9307 344.958 46.8213 344.105 45.456C343.294 44.0907 342.889 42.5973 342.889 40.976V21.904C342.889 20.2827 343.294 18.7893 344.105 17.424C344.958 16.0587 346.068 14.9707 347.433 14.16C348.798 13.3067 350.292 12.88 351.913 12.88H371.497C373.161 12.88 374.676 13.3067 376.041 14.16C377.406 14.9707 378.494 16.0587 379.305 17.424C380.116 18.7893 380.521 20.2827 380.521 21.904V40.976C380.521 42.5973 380.116 44.0907 379.305 45.456C378.494 46.8213 377.406 47.9307 376.041 48.784C374.676 49.5947 373.161 50 371.497 50H351.913ZM352.361 40.912H371.049C371.134 40.912 371.22 40.8693 371.305 40.784C371.39 40.6987 371.433 40.6133 371.433 40.528V22.352C371.433 22.2667 371.39 22.1813 371.305 22.096C371.22 22.0107 371.134 21.968 371.049 21.968H352.361C352.276 21.968 352.19 22.0107 352.105 22.096C352.02 22.1813 351.977 22.2667 351.977 22.352V40.528C351.977 40.6133 352.02 40.6987 352.105 40.784C352.19 40.8693 352.276 40.912 352.361 40.912ZM385.703 50V21.904C385.703 20.2827 386.108 18.7893 386.919 17.424C387.772 16.0587 388.882 14.9707 390.247 14.16C391.655 13.3067 393.17 12.88 394.791 12.88H415.335V21.968H395.175C395.09 21.968 395.004 22.0107 394.919 22.096C394.834 22.1813 394.791 22.2667 394.791 22.352V50H385.703ZM429.096 50C427.475 50 425.981 49.5947 424.616 48.784C423.251 47.9307 422.141 46.8213 421.288 45.456C420.477 44.0907 420.072 42.5973 420.072 40.976V39.312H429.16V40.528C429.16 40.6133 429.203 40.6987 429.288 40.784C429.373 40.8693 429.459 40.912 429.544 40.912H448.232C448.317 40.912 448.403 40.8693 448.488 40.784C448.573 40.6987 448.616 40.6133 448.616 40.528V36.368C448.616 36.2827 448.573 36.2187 448.488 36.176C448.403 36.0907 448.317 36.048 448.232 36.048H429.096C427.475 36.048 425.981 35.6427 424.616 34.832C423.251 33.9787 422.141 32.8693 421.288 31.504C420.477 30.1387 420.072 28.624 420.072 26.96V21.904C420.072 20.2827 420.477 18.7893 421.288 17.424C422.141 16.0587 423.251 14.9707 424.616 14.16C425.981 13.3067 427.475 12.88 429.096 12.88H448.68C450.344 12.88 451.859 13.3067 453.224 14.16C454.589 14.9707 455.677 16.0587 456.488 17.424C457.341 18.7893 457.768 20.2827 457.768 21.904V23.568H448.616V22.352C448.616 22.2667 448.573 22.1813 448.488 22.096C448.403 22.0107 448.317 21.968 448.232 21.968H429.544C429.459 21.968 429.373 22.0107 429.288 22.096C429.203 22.1813 429.16 22.2667 429.16 22.352V26.512C429.16 26.5973 429.203 26.6827 429.288 26.768C429.373 26.8107 429.459 26.832 429.544 26.832H448.68C450.344 26.832 451.859 27.2587 453.224 28.112C454.589 28.9227 455.677 30.0107 456.488 31.376C457.341 32.7413 457.768 34.256 457.768 35.92V40.976C457.768 42.5973 457.341 44.0907 456.488 45.456C455.677 46.8213 454.589 47.9307 453.224 48.784C451.859 49.5947 450.344 50 448.68 50H429.096Z" fill="currentColor"/>
</svg>
