<svg xmlns="http://www.w3.org/2000/svg" version="1.1" xmlns:xlink="http://www.w3.org/1999/xlink" xmlns:svgjs="http://svgjs.com/svgjs" width="400" height="172" preserveAspectRatio="none" viewBox="0 0 400 172"><g mask="url(&quot;#SvgjsMask3545&quot;)" fill="none"><rect width="117.4" height="117.4" clip-path="url(&quot;#SvgjsClipPath3546&quot;)" x="234.48" y="59.7" fill="url(#SvgjsPattern3547)" transform="rotate(181.86, 293.18, 118.4)"></rect><path d="M189.49 101.26L200.14 94.15 209.42 102.98 220.07 95.87 229.34 104.7 239.99 97.59 249.27 106.42M188.8 109.23L199.45 102.12 208.73 110.95 219.38 103.84 228.65 112.67 239.3 105.56 248.58 114.39M188.11 117.2L198.77 110.09 208.04 118.92 218.69 111.81 227.97 120.64 238.62 113.53 247.89 122.36" stroke="#e73635" stroke-width="1.39" stroke-dasharray="4, 4"></path><rect width="117.44" height="117.44" clip-path="url(&quot;#SvgjsClipPath3548&quot;)" x="70.56" y="77.53" fill="url(#SvgjsPattern3549)" transform="rotate(300.69, 129.28, 136.25)"></rect><rect width="108" height="108" clip-path="url(&quot;#SvgjsClipPath3550&quot;)" x="290.56" y="29.41" fill="url(#SvgjsPattern3551)" transform="rotate(333.89, 344.56, 83.41)"></rect><rect width="60" height="60" clip-path="url(&quot;#SvgjsClipPath3552&quot;)" x="148.38" y="89.04" fill="url(#SvgjsPattern3553)" transform="rotate(36.97, 178.38, 119.04)"></rect><path d="M126.45 109.44L126.28 96.63 138.74 93.65 138.57 80.85 151.02 77.87 150.85 65.06 163.3 62.08M132.77 114.35L132.6 101.54 145.05 98.56 144.88 85.76 157.33 82.78 157.16 69.98 169.62 67" stroke="#037b0b" stroke-width="1.07" stroke-dasharray="4, 4"></path><path d="M198.34 86.21L203.53 97.92 193.25 105.55 198.44 117.26 188.15 124.89 193.34 136.6 183.06 144.23M190.6 84.17L195.79 95.88 185.51 103.51 190.7 115.22 180.42 122.85 185.61 134.56 175.33 142.19" stroke="#d3b714" stroke-width="1"></path><circle r="22.134818555601896" cx="192.02" cy="50.36" stroke="#d3b714" stroke-width="1.37" stroke-dasharray="3, 2"></circle><path d="M231.87 151.46L232.43 138.67 245.03 136.4 245.59 123.61 258.19 121.34 258.75 108.55 271.35 106.28" stroke="#e73635" stroke-width="1.01" stroke-dasharray="4, 4"></path><path d="M378.46 137.52a5.6 5.6 0 1 0 0.27-11.2 5.6 5.6 0 1 0-0.27 11.2zM378.84 121.52a5.6 5.6 0 1 0 0.27-11.19 5.6 5.6 0 1 0-0.27 11.19zM379.22 105.53a5.6 5.6 0 1 0 0.27-11.2 5.6 5.6 0 1 0-0.27 11.2zM379.61 89.53a5.6 5.6 0 1 0 0.26-11.19 5.6 5.6 0 1 0-0.26 11.19z" fill="#037b0b"></path><rect width="108" height="108" clip-path="url(&quot;#SvgjsClipPath3554&quot;)" x="157.03" y="38.43" fill="url(#SvgjsPattern3555)" transform="rotate(247.37, 211.03, 92.43)"></rect></g><defs><mask id="SvgjsMask3545"><rect width="400" height="172" fill="#ffffff"></rect></mask><pattern x="0" y="0" width="117.4" height="11.74" patternUnits="userSpaceOnUse" id="SvgjsPattern3547"><rect width="117.4" height="5.87" x="0" y="0" fill="#d3b714"></rect><rect width="117.4" height="5.87" x="0" y="5.87" fill="rgba(0, 0, 0, 0)"></rect></pattern><clipPath id="SvgjsClipPath3546"><circle r="29.35" cx="293.18" cy="118.4"></circle></clipPath><pattern x="0" y="0" width="117.44" height="7.34" patternUnits="userSpaceOnUse" id="SvgjsPattern3549"><rect width="117.44" height="3.67" x="0" y="0" fill="#e73635"></rect><rect width="117.44" height="3.67" x="0" y="3.67" fill="rgba(0, 0, 0, 0)"></rect></pattern><clipPath id="SvgjsClipPath3548"><circle r="29.36" cx="129.28" cy="136.25"></circle></clipPath><pattern x="0" y="0" width="108" height="6" patternUnits="userSpaceOnUse" id="SvgjsPattern3551"><rect width="108" height="3" x="0" y="0" fill="#e73635"></rect><rect width="108" height="3" x="0" y="3" fill="rgba(0, 0, 0, 0)"></rect></pattern><clipPath id="SvgjsClipPath3550"><circle r="27" cx="344.56" cy="83.41"></circle></clipPath><pattern x="0" y="0" width="6" height="6" patternUnits="userSpaceOnUse" id="SvgjsPattern3553"><path d="M3 1L3 5M1 3L5 3" stroke="#e73635" fill="none" stroke-width="1"></path></pattern><clipPath id="SvgjsClipPath3552"><circle r="15" cx="178.38" cy="119.04"></circle></clipPath><pattern x="0" y="0" width="6" height="6" patternUnits="userSpaceOnUse" id="SvgjsPattern3555"><path d="M0 6L3 0L6 6" stroke="#d3b714" fill="none"></path></pattern><clipPath id="SvgjsClipPath3554"><circle r="27" cx="211.03" cy="92.43"></circle></clipPath></defs></svg>